<svg width="125" height="124" viewBox="0 0 125 124" fill="none" xmlns="http://www.w3.org/2000/svg">
<path d="M89.8914 4.84373C87.7844 5.27967 85.3868 7.28983 84.7813 9.10623C84.5391 9.8328 84.3938 9.92967 83.6188 9.92967C81.5602 9.95389 79.6711 11.1648 78.5813 13.1265C77.9758 14.2164 77.8789 14.6765 77.9032 16.1055C77.9032 18.043 78.436 19.2781 79.7438 20.489C81.5602 22.2086 81.2453 22.1601 91.4414 22.1601C100.402 22.1601 100.669 22.1359 101.613 21.6515C105.198 19.714 106.191 15.1125 103.672 12.0609C102.752 10.9469 100.741 9.92967 99.4336 9.92967C98.5133 9.92967 98.4164 9.85702 98.1258 9.03358C97.6657 7.7742 95.8735 5.9578 94.5172 5.37655C93.1125 4.77108 91.2961 4.57733 89.8914 4.84373ZM93.4274 7.72577C94.6383 8.2828 95.8735 9.88123 96.0672 11.189C96.2852 12.4 96.6727 12.6906 97.9563 12.5211C99.4094 12.3273 100.523 12.6906 101.492 13.6836C102.146 14.3617 102.316 14.7492 102.388 15.7906C102.509 17.2922 101.977 18.3578 100.717 19.1328C99.9664 19.593 99.4821 19.6172 91.4414 19.6172C83.4008 19.6172 82.9164 19.593 82.1657 19.1328C79.8407 17.7281 79.8649 14.7008 82.1899 12.9812C82.7469 12.5695 83.1828 12.4726 84.5391 12.5211C86.4039 12.5695 86.4766 12.5211 86.9368 10.8984C87.7844 7.91952 90.7149 6.51483 93.4274 7.72577Z" fill="#1B6EF7"/>
<path d="M15.9758 17.0258C13.9172 17.8008 12.4156 19.1813 11.6406 21.0703C11.4469 21.5547 11.1805 21.7969 10.8172 21.7969C9.65471 21.7969 7.69299 22.5719 6.77268 23.4195C3.47893 26.3984 4.20549 31.7508 8.10471 33.5672C9.33986 34.1484 9.3883 34.1484 18.3008 34.1484C27.2133 34.1484 27.2617 34.1484 28.4969 33.5672C31.5 32.1625 32.8321 28.2633 31.2821 25.2602C30.3375 23.3953 27.8188 21.7969 25.8086 21.7969C25.4453 21.7969 25.1789 21.5305 24.8883 20.8766C23.7742 18.382 21.5461 16.9047 18.6641 16.7836C17.5258 16.7352 16.5086 16.832 15.9758 17.0258ZM20.3836 19.7625C21.4008 20.2711 22.4906 21.7 22.9024 23.0563C23.0961 23.7344 23.411 24.3883 23.5563 24.5094C23.7258 24.6063 24.4766 24.6305 25.2031 24.5578C27.6977 24.3156 29.4414 25.9141 29.2719 28.2391C29.1508 29.7164 28.5696 30.5883 27.2375 31.2422C26.3172 31.7023 25.7844 31.7266 18.3008 31.7266C10.8414 31.7266 10.2844 31.7023 9.33986 31.2422C7.42658 30.3219 6.70002 27.8273 7.8383 26.132C8.66174 24.8969 9.7758 24.4125 11.3985 24.5578C12.125 24.6305 12.8758 24.6063 13.0453 24.5094C13.1906 24.3883 13.5055 23.7344 13.6992 23.0563C14.0867 21.7727 15.1766 20.2953 16.0969 19.8109C17.3805 19.1086 19.0758 19.1086 20.3836 19.7625Z" fill="#1B6EF7"/>
<path d="M53.6602 33.107C41.2602 34.0758 38.5719 34.8508 35.3992 38.4351C34.7211 39.2101 31.4758 43.7633 28.2063 48.5586C24.9367 53.3539 21.9094 57.6406 21.4735 58.0765C20.0688 59.5781 19.1485 59.8929 15.3946 60.0867C13.2633 60.1836 11.568 60.4015 10.793 60.6679C7.37815 61.8547 4.66565 64.7367 3.79378 68.1758C3.23674 70.2101 3.23674 82.5617 3.76956 84.5961C4.61721 87.8898 6.60315 90.2875 9.67893 91.7648L11.5196 92.6367L18.5672 92.7093L25.6149 92.782L25.9297 93.7992C26.3899 95.4218 27.5282 97.214 28.9813 98.6672L30.3375 100.023H21.4008C11.9555 100.023 11.8828 100.023 11.8828 101.137C11.8828 102.47 11.4953 102.445 26.2688 102.445C41.2602 102.445 41.3086 102.445 44.1907 100.944C46.2977 99.8297 48.6227 97.3836 49.5914 95.3008C50.0032 94.3562 50.4149 93.4117 50.4875 93.1937C50.6086 92.782 51.6258 92.7578 67.586 92.7578C81.8508 92.7578 84.5391 92.8062 84.5391 93.0968C84.5391 93.9687 86.525 97.3351 87.8328 98.6429L89.2375 100.023H78.1696C67.4891 100.023 67.1016 100.048 66.8594 100.484C66.5203 101.137 66.5446 101.622 67.0047 102.058C67.3438 102.397 69.136 102.445 83.0617 102.445C96.1641 102.445 98.9492 102.397 100.112 102.082C104.205 101.016 107.523 98.0617 109 94.1867L109.533 92.8062L111.979 92.7093C114.934 92.5883 116.532 91.9828 118.445 90.1906C121.037 87.7687 121.763 84.8625 121.521 77.8633C121.23 69.7015 119.947 66.7711 115.248 63.5258C111.761 61.1039 108.007 59.6265 103.648 58.9484C100.984 58.5367 99.6516 58.0039 98.5133 56.9383C98.1258 56.5992 94.8805 52.3125 91.3203 47.4445C87.5664 42.3343 84.2485 38.0718 83.5219 37.3937C81.1727 35.2625 79.1625 34.5601 73.2774 33.7851C67.4407 33.0586 58.3586 32.7195 53.6602 33.107ZM68.3125 35.8679C76.2078 36.4976 79.55 37.3211 81.7055 39.2343C82.2141 39.6703 85.5321 44.0054 89.0922 48.8976C92.6524 53.7656 96.0188 58.2218 96.6 58.7789C98.0532 60.1836 99.7727 60.9343 102.703 61.3945C104.084 61.6367 106.021 62.0726 107.038 62.3875C110.986 63.6711 115.127 66.1656 116.702 68.2242L117.307 69.0234H113.045H108.782L107.959 69.75C106.53 70.9851 106.336 73.1648 107.498 74.7633C109.605 77.6695 113.844 80.0914 118.058 80.7695L118.978 80.9148L118.881 82.9008C118.639 87.4054 116.072 90.0211 111.64 90.2875L109.727 90.4086V88.9554C109.727 85.7586 108.516 83.0218 105.997 80.5031C103.381 77.8875 100.62 76.7734 96.818 76.7734C90.1336 76.7734 84.7813 81.7867 84.1516 88.5922L83.9821 90.3359H67.4407H50.875V88.9312C50.875 85.8312 49.5914 82.9492 47.1453 80.5273C44.5297 77.9601 41.6719 76.7734 38.0391 76.7734C34.5031 76.7734 31.4516 78.0328 28.9328 80.5515C26.7047 82.7554 25.2031 86.2672 25.2031 89.1976V90.3601L18.8578 90.2875L12.4883 90.2148L10.9625 89.5125C9.04924 88.6164 7.28128 86.7515 6.57893 84.8625C6.28831 84.0875 5.99768 82.5859 5.90081 81.3508L5.75549 79.1953H8.61331C12.9485 79.1953 13.9172 78.5898 15.0313 75.2234C15.9032 72.5351 15.3219 70.4281 13.3844 69.2172C12.6094 68.7328 12.0766 68.6359 9.38831 68.539L6.31253 68.4179L6.7969 67.425C7.59612 65.8265 8.83128 64.5672 10.4782 63.6953C11.9071 62.9203 12.1735 62.8718 15.3946 62.7023C19.8508 62.4601 21.3766 61.9515 23.2172 60.1109C23.7016 59.6023 27.0438 54.9281 30.6282 49.6968C34.1883 44.4898 37.5547 39.8398 38.0633 39.3554C40.0735 37.539 42.1321 36.8851 47.8477 36.207C54.4594 35.4078 60.95 35.3109 68.3125 35.8679ZM40.025 79.4617C45.4258 80.6242 49.2039 86.025 48.2352 91.2078C47.436 95.5429 44.2875 98.7883 39.9766 99.6843C37.8938 100.12 35.7383 99.8297 33.7039 98.8851C31.936 98.0375 29.611 95.7125 28.6907 93.8476C28.0367 92.4914 27.9883 92.2008 27.9883 89.6093C27.9883 86.9695 28.0367 86.7515 28.7633 85.2258C30.1438 82.4164 33.1953 80.0429 36.15 79.4617C37.6516 79.1468 38.5719 79.1711 40.025 79.4617ZM98.8766 79.4617C100.911 79.8976 102.703 80.8664 104.18 82.3195C108.249 86.4125 108.298 92.6367 104.277 96.7781C99.2883 101.864 90.9571 100.484 87.7602 94.0414C86.9852 92.4672 86.8641 91.9586 86.7672 90.1422C86.6946 88.4468 86.7672 87.7445 87.2031 86.4851C88.8985 81.4476 93.936 78.4203 98.8766 79.4617Z" fill="#1B6EF7"/>
<path d="M54.75 38.9195C47.9203 39.3797 43.1977 40.0336 41.793 40.7117C41.2359 40.9539 40.4609 41.5109 40.0492 41.9469C38.9352 43.1094 27.8672 59.3602 27.8672 59.8203C27.8672 60.0383 28.0609 60.4016 28.3031 60.6195C28.7148 60.9828 30.0711 61.0312 42.907 61.0312C53.6117 61.0312 57.1477 60.9586 57.3656 60.7406C57.5836 60.5227 57.6562 57.8102 57.6562 49.9875V39.5008L57.1234 39.1375C56.8328 38.9195 56.4211 38.7742 56.2031 38.7984C56.0094 38.8227 55.3555 38.8711 54.75 38.9195ZM55.2344 50.0117V58.6094H43.4883C32.3477 58.6094 31.7422 58.5852 31.9602 58.1734C32.0812 57.9555 34.3578 54.5891 36.9977 50.7383C40.9453 44.9984 42.0109 43.618 42.7859 43.182C43.9484 42.5523 49.8336 41.6805 54.5805 41.4383L55.2344 41.4141V50.0117Z" fill="#1B6EF7"/>
<path d="M63.275 39.2828C62.8633 39.6945 62.8633 60.3289 63.275 60.7406C63.493 60.9586 67.0532 61.0312 77.7821 61.0312C90.4 61.0312 92.0469 60.9828 92.386 60.6438C93.2094 59.8445 93.5969 60.45 83.9821 47.3477C82.1172 44.8289 80.325 42.4313 79.9618 42.068C78.5813 40.5664 76.6438 40.0094 70.3953 39.3555C66.1328 38.9195 63.6625 38.8953 63.275 39.2828Z" fill="#1B6EF7"/>
<path d="M28.3516 65.3906C27.7461 65.9961 27.7219 66.65 28.3032 67.1586C28.6665 67.4977 29.2961 67.5703 31.8149 67.5703C35.1086 67.5703 35.6172 67.4008 35.6172 66.2383C35.6172 65.1727 34.818 64.9062 31.6938 64.9062C29.1508 64.9062 28.7876 64.9547 28.3516 65.3906Z" fill="#1B6EF7"/>
<path d="M63.5172 65.2938C62.8875 65.7297 62.8149 66.65 63.3719 67.1828C63.6625 67.4977 64.3406 67.5703 66.8594 67.5703C69.911 67.5703 70.0078 67.5461 70.3953 66.9648C70.8797 66.2383 70.6375 65.4391 69.8383 65.1242C68.8211 64.7367 64.1469 64.8578 63.5172 65.2938Z" fill="#1B6EF7"/>
<path d="M36.0047 83.8937C32.5172 85.2015 31.0399 89.2703 32.8563 92.5398C33.7282 94.0656 35.5204 95.3007 37.2157 95.5671C39.5649 95.9062 42.0594 94.6953 43.2946 92.5882C43.8758 91.5953 43.9727 91.1593 43.9727 89.6093C43.9727 87.6476 43.6094 86.6789 42.4227 85.4195C40.9938 83.8453 38.0149 83.1429 36.0047 83.8937Z" fill="#1B6EF7"/>
<path d="M95.5587 83.7726C91.829 84.6929 89.9399 88.8343 91.6594 92.3703C93.5243 96.1968 98.7313 96.7781 101.541 93.4843C105.27 89.1492 101.105 82.4164 95.5587 83.7726Z" fill="#1B6EF7"/>
<path d="M30.5313 113.102C29.95 113.683 29.9258 114.022 30.4344 114.748C30.7977 115.281 30.8219 115.281 38.1602 115.281C45.4985 115.281 45.5227 115.281 45.886 114.748C46.3945 114.022 46.3703 113.683 45.7891 113.102C45.3289 112.641 44.9899 112.617 38.1602 112.617C31.3305 112.617 30.9914 112.641 30.5313 113.102Z" fill="#1B6EF7"/>
<path d="M72.4781 117.025C72.3086 117.195 72.1875 117.679 72.1875 118.115C72.1875 118.769 72.3086 118.963 72.8172 119.156C73.1562 119.302 76.0383 119.398 79.2352 119.398C84.7086 119.398 85.0477 119.374 85.5078 118.914C86.1133 118.309 86.1375 117.655 85.5562 117.146C85.1687 116.783 84.3453 116.734 78.9445 116.734C74.4641 116.734 72.6961 116.807 72.4781 117.025Z" fill="#1B6EF7"/>
</svg>
